#!OML:ASF F:\twosubjects\two\Thursday\Session 1\justin.ASF
:FULLY-SPECIFIED
:DEGREES
228
root 7.28287 18.1541 6.02629 -162.724 32.0238 -175.707
lowerback 4.31698 -1.49362 -6.54226
upperback 5.43419 -1.88884 2.02903
thorax 3.53374 -1.12394 5.8165
lowerneck -10.1352 -7.30697 -7.90839
upperneck 36.3868 -10.2805 12.165
head 15.6934 -3.05809 5.19209
rclavicle 7.55382e-015 -1.74931e-014
rhumerus -26.3156 -16.6949 -77.9505
rradius 26.5724
rwrist -0.713672
rhand -14.1425 10.835
rfingers 7.12502
rthumb 11.9917 -18.8015
lclavicle 7.55382e-015 -1.74931e-014
lhumerus -25.7287 -1.8124 84.3091
lradius 40.6796
lwrist -2.52789
lhand -2.18634 36.3915
lfingers 7.12502
lthumb 23.4947 64.9768
rfemur -43.5135 -8.92355 30.003
rtibia 44.7054
rfoot -17.757 1.50539
rtoes -19.9518
lfemur -10.277 9.36266 -23.1702
ltibia 16.8342
lfoot -14.9479 2.23124
ltoes -15.578
229
root 7.29268 18.1564 6.02397 -162.785 32.2555 -175.737
lowerback 4.40388 -1.68043 -6.82811
upperback 5.38851 -2.15536 2.10029
thorax 3.49649 -1.26899 6.0581
lowerneck -10.3092 -7.09117 -8.02901
upperneck 36.3506 -9.86926 11.87
head 15.6332 -2.94903 5.1409
rclavicle 4.73108e-014 7.15625e-015
rhumerus -26.4826 -16.5045 -77.7363
rradius 26.2377
rwrist -0.602166
rhand -13.8983 10.9804
rfingers 7.12502
rthumb 12.2272 -18.6422
lclavicle 4.73108e-014 7.15625e-015
lhumerus -26.3126 -0.825074 84.2476
lradius 40.6426
lwrist -2.74936
lhand -2.25322 36.4206
lfingers 7.12502
lthumb 23.4305 65.0141
rfemur -43.4991 -8.74417 29.6482
rtibia 44.6748
rfoot -17.9951 0.172848
rtoes -19.0855
lfemur -9.82658 9.40279 -23.2244
ltibia 16.1202
lfoot -14.3615 2.58596
ltoes -17.5082
230
root 7.30199 18.1744 6.02505 -162.782 32.2887 -175.732
lowerback 4.57681 -1.74295 -6.85395
upperback 5.27055 -2.2595 2.04346
thorax 3.28951 -1.31252 6.01986
lowerneck -10.418 -7.05015 -7.80205
upperneck 36.361 -9.80196 11.6378
head 15.6184 -2.91828 5.00373
rclavicle 3.77691e-014 2.38542e-015
rhumerus -26.8607 -16.6289 -77.6023
rradius 25.9698
rwrist -0.62818
rhand -13.8038 10.8337
rfingers 7.12502
rthumb 12.3183 -18.7834
lclavicle 3.77691e-014 2.38542e-015
lhumerus -26.0538 -1.2141 84.0596
lradius 39.847
lwrist -2.38267
lhand -2.15 36.6039
lfingers 7.12502
lthumb 23.5295 65.1847
rfemur -43.5377 -8.7532 29.4406
rtibia 44.5749
rfoot -18.129 -1.40567
rtoes -17.6806
lfemur -9.4509 9.37232 -23.1834
ltibia 15.4218
lfoot -13.8036 2.59493
ltoes -18.222
231
root 7.31153 18.1872 6.02879 -162.85 32.2813 -175.85
lowerback 4.67839 -1.82903 -6.99932
upperback 5.22103 -2.38799 2.02672
thorax 3.20816 -1.37836 6.08958
lowerneck -10.4637 -7.02692 -7.94708
upperneck 36.3291 -9.76477 11.6952
head 15.6222 -2.91984 5.0585
rclavicle -1.86858e-014 -1.59028e-014
rhumerus -27.016 -16.9945 -77.3423
rradius 25.599
rwrist -0.281154
rhand -13.6842 10.7811
rfingers 7.12502
rthumb 12.4336 -18.8291
lclavicle -1.86858e-014 -1.59028e-014
lhumerus -26.4785 -0.918307 84.0773
lradius 39.7009
lwrist -2.638
lhand -2.16656 36.8353
lfingers 7.12502
lthumb 23.5136 65.4181
rfemur -43.5192 -8.85072 29.1615
rtibia 44.3077
rfoot -17.838 -3.01066
rtoes -16.3387
lfemur -9.25079 9.39984 -23.2404
ltibia 15.061
lfoot -13.5982 2.43133
ltoes -17.7606
232
root 7.32211 18.1968 6.03268 -162.67 32.2068 -175.946
lowerback 4.38104 -1.98425 -7.11972
upperback 5.20311 -2.58572 2.07401
thorax 3.39784 -1.49253 6.19822
lowerneck -10.4293 -7.00642 -8.38674
upperneck 36.1184 -9.73821 11.9454
head 15.5538 -2.9568 5.23808
rclavicle -4.33351e-014 3.18055e-015
rhumerus -26.9917 -17.4563 -77.0628
rradius 25.2425
rwrist 0.125638
rhand -13.4712 10.8727
rfingers 7.12502
rthumb 12.6389 -18.7249
lclavicle -4.33351e-014 3.18055e-015
lhumerus -26.0538 -0.555918 84.0237
lradius 38.8983
lwrist -2.68797
lhand -2.74497 37.0979
lfingers 7.12502
lthumb 22.9587 65.7508
rfemur -43.6966 -9.0159 28.9847
rtibia 43.7999
rfoot -17.4173 -4.64647
rtoes -16.0472
lfemur -9.54636 9.41103 -23.3099
ltibia 15.1472
lfoot -13.6124 2.34207
ltoes -18.5569
233
root 7.33354 18.2211 6.03363 -162.371 32.0945 -176.059
lowerback 4.02178 -2.20138 -7.23608
upperback 5.104 -2.87018 2.10033
thorax 3.55041 -1.64871 6.2788
lowerneck -10.4919 -6.90726 -8.44345
upperneck 35.9795 -9.55777 11.797
head 15.461 -2.9208 5.19681
rclavicle 1.43125e-013 -8.98507e-014
rhumerus -27.0855 -17.3584 -76.986
rradius 25.1217
rwrist -0.0460041
rhand -13.4398 10.6518
rfingers 7.12502
rthumb 12.6693 -18.9439
lclavicle 1.43125e-013 -8.98507e-014
lhumerus -25.6359 -0.0404344 83.8617
lradius 38.0597
lwrist -2.77832
lhand -3.27649 37.1323
lfingers 7.12502
lthumb 22.4486 65.8477
rfemur -43.8545 -9.05214 28.7296
rtibia 43.049
rfoot -17.1224 -6.14499
rtoes -15.8695
lfemur -10.1396 9.35651 -23.3924
ltibia 15.5564
lfoot -13.502 2.04589
ltoes -18.9212
234
root 7.34774 18.2563 6.01418 -162.543 32.3793 -176.09
lowerback 4.10347 -2.33689 -7.3675
upperback 5.09786 -3.05882 2.05744
thorax 3.5359 -1.74657 6.31013
lowerneck -10.7496 -6.70189 -8.27036
upperneck 36.1035 -9.19686 11.4602
head 15.4899 -2.78193 5.07965
rclavicle 2.46493e-014 7.95139e-015
rhumerus -27.2861 -16.9051 -77.0545
rradius 25.066
rwrist -0.136821
rhand -13.5417 10.5609
rfingers 7.12502
rthumb 12.571 -19.0408
lclavicle 2.46493e-014 7.95139e-015
lhumerus -25.7883 0.652576 83.6188
lradius 37.5982
lwrist -2.877
lhand -3.21047 37.0526
lfingers 7.12502
lthumb 22.512 65.7603
rfemur -43.2342 -8.83872 28.2955
rtibia 42.1603
rfoot -16.85 -7.27296
rtoes -12.6779
lfemur -10.0285 9.42316 -23.3949
ltibia 15.9429
lfoot -13.4747 1.67113
ltoes -15.816
235
root 7.3663 18.2733 5.99007 -162.856 32.7654 -176.046
lowerback 4.38491 -2.34666 -7.50426
upperback 5.0587 -3.09488 2.0364
thorax 3.35079 -1.7604 6.3786
lowerneck -10.731 -6.57166 -8.3758
upperneck 36.186 -8.98855 11.5015
head 15.5042 -2.69966 5.16026
rclavicle 4.05521e-014 -1.03368e-014
rhumerus -27.6824 -17.0146 -76.8328
rradius 24.8662
rwrist 0.404348
rhand -13.4447 10.8149
rfingers 7.12502
rthumb 12.6645 -18.7811
lclavicle 4.05521e-014 -1.03368e-014
lhumerus -26.4241 1.22488 83.4917
lradius 37.4718
lwrist -2.9943
lhand -3.14989 36.6495
lfingers 7.12502
lthumb 22.5701 65.3501
rfemur -42.4138 -8.53437 27.9026
rtibia 41.2804
rfoot -16.4572 -8.46097
rtoes -8.90497
lfemur -9.54259 9.36452 -23.3246
ltibia 16.0636
lfoot -13.7172 1.77466
ltoes -12.9899
236
root 7.38818 18.271 5.9853 -162.783 32.8527 -176.149
lowerback 4.26893 -2.38347 -7.72776
upperback 4.90867 -3.15811 2.05097
thorax 3.2845 -1.79835 6.51875
lowerneck -10.5559 -6.52444 -8.41952
upperneck 36.0708 -8.92002 11.5147
head 15.3967 -2.68323 5.17787
rclavicle 4.69132e-014 -1.98785e-014
rhumerus -28.1108 -17.4454 -76.4642
rradius 24.7813
rwrist 0.748644
rhand -13.155 10.8
rfingers 7.12502
rthumb 12.9437 -18.7785
lclavicle 4.69132e-014 -1.98785e-014
lhumerus -26.9303 1.61786 83.4649
lradius 37.3713
lwrist -3.16154
lhand -3.03998 36.3092
lfingers 7.12502
lthumb 22.6756 64.997
rfemur -42.271 -8.23535 27.5244
rtibia 40.484
rfoot -16.0083 -9.8964
rtoes -6.62978
lfemur -9.19692 9.23464 -23.397
ltibia 15.1503
lfoot -13.3601 1.72632
ltoes -12.0289
237
root 7.41106 18.2656 5.98314 -162.381 32.86 -175.934
lowerback 3.61499 -2.51976 -7.38233
upperback 4.98885 -3.28789 1.98901
thorax 3.72935 -1.87162 6.22337
lowerneck -10.7041 -6.42571 -8.27895
upperneck 35.921 -8.82589 11.4976
head 15.3317 -2.6348 5.14476
rclavicle 2.8625e-014 -4.69132e-014
rhumerus -28.1111 -17.9087 -76.4952
rradius 24.7435
rwrist 0.802174
rhand -13.0681 10.6572
rfingers 7.12502
rthumb 13.0275 -18.916
lclavicle 2.8625e-014 -4.69132e-014
lhumerus -26.9101 1.59653 83.3023
lradius 37.1639
lwrist -2.72915
lhand -2.95362 36.777
lfingers 7.12502
lthumb 22.7585 65.4546
rfemur -42.3974 -8.07892 27.5999
rtibia 39.7434
rfoot -15.6964 -11.2088
rtoes -5.83733
lfemur -9.2698 9.35754 -23.1939
ltibia 14.5896
lfoot -12.7116 1.71483
ltoes -14.441
238
root 7.46505 18.2488 5.80266 -164.279 36.1296 -174.836
lowerback 4.0829 -1.21315 -6.68377
upperback 5.94972 -1.45215 1.6085
thorax 4.13729 -0.925641 5.44329
lowerneck -10.8593 -6.71127 -8.15691
upperneck 36.2255 -9.24967 11.4843
head 15.5805 -2.77385 5.07084
rclavicle 1.80894e-013 -5.48646e-014
rhumerus -28.9393 -18.7237 -75.9219
rradius 24.942
rwrist 0.620545
rhand -13.0895 10.6695
rfingers 7.12502
rthumb 13.0069 -18.905
lclavicle 1.80894e-013 -5.48646e-014
lhumerus -27.2858 0.490683 83.7046
lradius 37.052
lwrist -2.11024
lhand -2.9654 37.8633
lfingers 7.12502
lthumb 22.7472 66.5424
rfemur -38.8197 -6.8168 27.3022
rtibia 39.0355
rfoot -15.5162 -10.3036
rtoes -6.54088
lfemur -5.14826 10.6182 -22.7834
ltibia 13.7655
lfoot -12.4782 4.24385
ltoes -18.1008
239
root 7.44793 18.2896 5.93098 -162.442 33.2399 -175.288
lowerback 3.62359 -2.052 -6.54516
upperback 4.96931 -2.65595 2.10497
thorax 3.55216 -1.51927 5.87946
lowerneck -11.0364 -6.8839 -8.48088
upperneck 36.536 -9.38286 11.4192
head 15.8215 -2.86546 5.1022
rclavicle 4.13472e-014 -1.19271e-014
rhumerus -29.3763 -19.1917 -75.3383
rradius 25.1232
rwrist 0.489081
rhand -13.1818 10.6062
rfingers 7.12502
rthumb 12.9179 -18.974
lclavicle 4.13472e-014 -1.19271e-014
lhumerus -27.474 0.20761 84.1406
lradius 36.8217
lwrist -2.00042
lhand -2.75056 38.4277
lfingers 7.12502
lthumb 22.9533 67.0813
rfemur -41.275 -7.71615 27.4775
rtibia 38.1864
rfoot -14.7363 -12.3744
rtoes -5.91013
lfemur -7.75498 8.86798 -22.5513
ltibia 13.1829
lfoot -11.4809 2.45024
ltoes -17.845
240
root 7.46724 18.3088 5.92106 -162.594 33.3264 -175.637
lowerback 4.18343 -1.85821 -6.7071
upperback 4.42086 -2.47647 2.10106
thorax 2.64074 -1.39766 5.99751
lowerneck -10.6003 -7.09005 -8.6617
upperneck 36.6871 -9.55831 11.2466
head 15.821 -2.97865 5.04659
rclavicle 6.36111e-015 4.77083e-015
rhumerus -30.5629 -19.7451 -74.4807
rradius 25.3497
rwrist 0.312906
rhand -13.372 10.401
rfingers 7.12502
rthumb 12.7346 -19.1907
lclavicle 6.36111e-015 4.77083e-015
lhumerus -28.3183 -0.101534 84.5105
lradius 36.4518
lwrist -1.99982
lhand -2.9206 38.0125
lfingers 7.12502
lthumb 22.7902 66.6862
rfemur -40.8304 -7.46887 26.8033
rtibia 37.1394
rfoot -14.7513 -13.0021
rtoes -2.78306
lfemur -7.70913 8.86225 -22.7518
ltibia 13.274
lfoot -11.7984 2.12638
ltoes -15.9574
241
root 7.48639 18.3299 5.88666 -162.948 33.5906 -176.011
lowerback 5.66993 -1.65626 -6.81725
upperback 3.43359 -2.37148 2.03513
thorax 0.761908 -1.26336 6.06208
lowerneck -9.95112 -7.23461 -8.91647
upperneck 37.0854 -9.63801 11.206
head 15.8982 -3.02796 5.10881
rclavicle 2.32578e-014 1.03368e-014
rhumerus -32.3919 -19.1319 -73.7779
rradius 25.7587
rwrist -0.490499
rhand -13.341 10.0096
rfingers 7.12502
rthumb 12.7644 -19.5802
lclavicle 2.32578e-014 1.03368e-014
lhumerus -29.9325 -0.220154 84.7172
lradius 36.3469
lwrist -2.15032
lhand -2.87901 37.9428
lfingers 7.12502
lthumb 22.8301 66.6116
rfemur -40.2183 -7.34496 26.0786
rtibia 36.2156
rfoot -14.7179 -13.1754
rtoes 0.615584
lfemur -7.47657 8.33342 -23.031
ltibia 13.5252
lfoot -11.8599 2.36186
ltoes -14.7747
